<svg xmlns="http://www.w3.org/2000/svg" width="60" height="52" viewBox="0 0 60 52" fill="none">
  <path d="M0 4.28571C0 1.91518 1.91518 0 4.28571 0H55.7143C58.0848 0 60 1.91518 60 4.28571C60 6.65625 58.0848 8.57143 55.7143 8.57143H4.28571C1.91518 8.57143 0 6.65625 0 4.28571ZM0 25.7143C0 23.3437 1.91518 21.4286 4.28571 21.4286H55.7143C58.0848 21.4286 60 23.3437 60 25.7143C60 28.0848 58.0848 30 55.7143 30H4.28571C1.91518 30 0 28.0848 0 25.7143ZM60 47.1429C60 49.5134 58.0848 51.4286 55.7143 51.4286H4.28571C1.91518 51.4286 0 49.5134 0 47.1429C0 44.7723 1.91518 42.8571 4.28571 42.8571H55.7143C58.0848 42.8571 60 44.7723 60 47.1429Z" fill="#ABABAB"/>
</svg>