<svg width="44" height="45" viewBox="0 0 44 45" fill="none" xmlns="http://www.w3.org/2000/svg">
<path fill-rule="evenodd" clip-rule="evenodd" d="M5 1C2.23858 1 0 3.23858 0 6V40C0 42.7614 2.23858 45 5 45H33V36C33 34.8954 33.8954 34 35 34H44V6C44 3.23858 41.7614 1 39 1H5ZM35 45V36H44V36.0156L35.0156 45H35ZM8 23C9.10457 23 10 22.1046 10 21C10 19.8954 9.10457 19 8 19C6.89543 19 6 19.8954 6 21C6 22.1046 6.89543 23 8 23ZM10 9C10 10.1046 9.10457 11 8 11C6.89543 11 6 10.1046 6 9C6 7.89543 6.89543 7 8 7C9.10457 7 10 7.89543 10 9ZM8 34C9.10457 34 10 33.1046 10 32C10 30.8954 9.10457 30 8 30C6.89543 30 6 30.8954 6 32C6 33.1046 6.89543 34 8 34ZM13 7.5C12.1716 7.5 11.5 8.17157 11.5 9C11.5 9.82843 12.1716 10.5 13 10.5H34C34.8284 10.5 35.5 9.82843 35.5 9C35.5 8.17157 34.8284 7.5 34 7.5H13ZM11.5 21C11.5 20.1716 12.1716 19.5 13 19.5H34C34.8284 19.5 35.5 20.1716 35.5 21C35.5 21.8284 34.8284 22.5 34 22.5H13C12.1716 22.5 11.5 21.8284 11.5 21ZM13 30.5C12.1716 30.5 11.5 31.1716 11.5 32C11.5 32.8284 12.1716 33.5 13 33.5H24.8125H34C34.8284 33.5 35.5 32.8284 35.5 32C35.5 31.1716 34.8284 30.5 34 30.5H24.8125H13Z" fill="white"/>
</svg>
