<svg xmlns="http://www.w3.org/2000/svg" width="30" height="34" viewBox="0 0 30 34" fill="none">
  <path d="M15 16.6667C17.2733 16.6667 19.4535 15.7887 21.0609 14.2259C22.6684 12.6631 23.5714 10.5435 23.5714 8.33333C23.5714 6.1232 22.6684 4.00358 21.0609 2.44078C19.4535 0.877974 17.2733 0 15 0C12.7267 0 10.5465 0.877974 8.93908 2.44078C7.33163 4.00358 6.42857 6.1232 6.42857 8.33333C6.42857 10.5435 7.33163 12.6631 8.93908 14.2259C10.5465 15.7887 12.7267 16.6667 15 16.6667ZM11.9397 19.7917C5.34375 19.7917 0 24.987 0 31.3997C0 32.4674 0.890625 33.3333 1.98884 33.3333H28.0112C29.1094 33.3333 30 32.4674 30 31.3997C30 24.987 24.6562 19.7917 18.0603 19.7917H11.9397Z" fill="white"/>
</svg>