<svg xmlns="http://www.w3.org/2000/svg" width="75" height="58" viewBox="0 0 75 58" fill="none">
  <path d="M32.5138 56.951C33.8952 57.4371 35.379 56.4266 35.379 54.9684V6.69435C35.379 6.15712 35.1744 5.61988 34.7394 5.28731C32.2324 3.29188 26.4763 0.733643 19.0063 0.733643C12.5467 0.733643 6.50925 2.43487 2.90212 3.81632C1.45672 4.37914 0.586914 5.81175 0.586914 7.35949V54.7253C0.586914 56.2475 2.22419 57.3092 3.6696 56.8359C7.69883 55.4928 14.0816 53.9451 19.0063 53.9451C23.3425 53.9451 29.1113 55.7358 32.5138 56.951ZM42.3374 56.951C45.7399 55.7358 51.5087 53.9451 55.8449 53.9451C60.7696 53.9451 67.1524 55.4928 71.1816 56.8359C72.627 57.322 74.2643 56.2475 74.2643 54.7253V7.35949C74.2643 5.81175 73.3945 4.37914 71.9491 3.82912C68.342 2.43487 62.3045 0.733643 55.8449 0.733643C48.3749 0.733643 42.6188 3.29188 40.1118 5.28731C39.6896 5.61988 39.4722 6.15712 39.4722 6.69435V54.9684C39.4722 56.4266 40.9688 57.4371 42.3374 56.951Z" fill="url(#paint0_linear_12_390)"/>
  <defs>
    <linearGradient id="paint0_linear_12_390" x1="37.4256" y1="0.733643" x2="37.4256" y2="57.0743" gradientUnits="userSpaceOnUse">
      <stop stop-color="#707070"/>
      <stop offset="1" stop-color="#707070" stop-opacity="0"/>
    </linearGradient>
  </defs>
</svg>