<svg xmlns="http://www.w3.org/2000/svg" width="74" height="100" viewBox="0 0 74 100" fill="none">
  <path d="M12.2983 0.831543C5.58758 0.831543 0.131592 6.33816 0.131592 13.1111V86.7885C0.131592 93.5614 5.58758 99.068 12.2983 99.068H60.9649C67.6756 99.068 73.1316 93.5614 73.1316 86.7885V13.1111C73.1316 6.33816 67.6756 0.831543 60.9649 0.831543H12.2983ZM18.3816 13.1111H54.8816C58.2464 13.1111 60.9649 15.8548 60.9649 19.2509V25.3907C60.9649 28.7867 58.2464 31.5304 54.8816 31.5304H18.3816C15.0167 31.5304 12.2983 28.7867 12.2983 25.3907V19.2509C12.2983 15.8548 15.0167 13.1111 18.3816 13.1111ZM24.4649 43.81C24.4649 45.4384 23.824 47.0001 22.6832 48.1515C21.5423 49.3029 19.995 49.9498 18.3816 49.9498C16.7682 49.9498 15.2209 49.3029 14.08 48.1515C12.9392 47.0001 12.2983 45.4384 12.2983 43.81C12.2983 42.1816 12.9392 40.62 14.08 39.4685C15.2209 38.3171 16.7682 37.6702 18.3816 37.6702C19.995 37.6702 21.5423 38.3171 22.6832 39.4685C23.824 40.62 24.4649 42.1816 24.4649 43.81ZM18.3816 68.3691C16.7682 68.3691 15.2209 67.7223 14.08 66.5708C12.9392 65.4194 12.2983 63.8577 12.2983 62.2294C12.2983 60.601 12.9392 59.0393 14.08 57.8879C15.2209 56.7364 16.7682 56.0896 18.3816 56.0896C19.995 56.0896 21.5423 56.7364 22.6832 57.8879C23.824 59.0393 24.4649 60.601 24.4649 62.2294C24.4649 63.8577 23.824 65.4194 22.6832 66.5708C21.5423 67.7223 19.995 68.3691 18.3816 68.3691ZM12.2983 80.6487C12.2983 77.2526 15.0167 74.5089 18.3816 74.5089H36.6316C39.9964 74.5089 42.7149 77.2526 42.7149 80.6487C42.7149 84.0448 39.9964 86.7885 36.6316 86.7885H18.3816C15.0167 86.7885 12.2983 84.0448 12.2983 80.6487ZM36.6316 49.9498C35.0182 49.9498 33.4709 49.3029 32.33 48.1515C31.1892 47.0001 30.5483 45.4384 30.5483 43.81C30.5483 42.1816 31.1892 40.62 32.33 39.4685C33.4709 38.3171 35.0182 37.6702 36.6316 37.6702C38.245 37.6702 39.7923 38.3171 40.9332 39.4685C42.074 40.62 42.7149 42.1816 42.7149 43.81C42.7149 45.4384 42.074 47.0001 40.9332 48.1515C39.7923 49.3029 38.245 49.9498 36.6316 49.9498ZM42.7149 62.2294C42.7149 63.8577 42.074 65.4194 40.9332 66.5708C39.7923 67.7223 38.245 68.3691 36.6316 68.3691C35.0182 68.3691 33.4709 67.7223 32.33 66.5708C31.1892 65.4194 30.5483 63.8577 30.5483 62.2294C30.5483 60.601 31.1892 59.0393 32.33 57.8879C33.4709 56.7364 35.0182 56.0896 36.6316 56.0896C38.245 56.0896 39.7923 56.7364 40.9332 57.8879C42.074 59.0393 42.7149 60.601 42.7149 62.2294ZM54.8816 49.9498C53.2682 49.9498 51.7209 49.3029 50.58 48.1515C49.4392 47.0001 48.7983 45.4384 48.7983 43.81C48.7983 42.1816 49.4392 40.62 50.58 39.4685C51.7209 38.3171 53.2682 37.6702 54.8816 37.6702C56.495 37.6702 58.0423 38.3171 59.1832 39.4685C60.324 40.62 60.9649 42.1816 60.9649 43.81C60.9649 45.4384 60.324 47.0001 59.1832 48.1515C58.0423 49.3029 56.495 49.9498 54.8816 49.9498ZM60.9649 62.2294C60.9649 63.8577 60.324 65.4194 59.1832 66.5708C58.0423 67.7223 56.495 68.3691 54.8816 68.3691C53.2682 68.3691 51.7209 67.7223 50.58 66.5708C49.4392 65.4194 48.7983 63.8577 48.7983 62.2294C48.7983 60.601 49.4392 59.0393 50.58 57.8879C51.7209 56.7364 53.2682 56.0896 54.8816 56.0896C56.495 56.0896 58.0423 56.7364 59.1832 57.8879C60.324 59.0393 60.9649 60.601 60.9649 62.2294ZM54.8816 86.7885C53.2682 86.7885 51.7209 86.1416 50.58 84.9902C49.4392 83.8387 48.7983 82.2771 48.7983 80.6487C48.7983 79.0203 49.4392 77.4586 50.58 76.3072C51.7209 75.1558 53.2682 74.5089 54.8816 74.5089C56.495 74.5089 58.0423 75.1558 59.1832 76.3072C60.324 77.4586 60.9649 79.0203 60.9649 80.6487C60.9649 82.2771 60.324 83.8387 59.1832 84.9902C58.0423 86.1416 56.495 86.7885 54.8816 86.7885Z" fill="url(#paint0_linear_12_386)"/>
  <defs>
    <linearGradient id="paint0_linear_12_386" x1="36.6316" y1="0.831543" x2="36.6316" y2="99.068" gradientUnits="userSpaceOnUse">
      <stop stop-color="#727272"/>
      <stop offset="1" stop-color="#727272" stop-opacity="0"/>
    </linearGradient>
  </defs>
</svg>