<svg xmlns="http://www.w3.org/2000/svg" width="83" height="73" viewBox="0 0 83 73" fill="none">
  <path d="M10.8753 5.53091C10.8753 2.70086 8.58887 0.414429 5.75882 0.414429C2.92876 0.414429 0.642334 2.70086 0.642334 5.53091V59.254C0.642334 66.3211 6.3664 72.0452 13.4335 72.0452H45.4116H77.3896C80.2197 72.0452 82.5061 69.7588 82.5061 66.9287C82.5061 64.0987 80.2197 61.8122 77.3896 61.8122H13.4335C12.0265 61.8122 10.8753 60.661 10.8753 59.254V5.53091ZM75.8866 19.3774C77.8853 17.3788 77.8853 14.133 75.8866 12.1344C73.888 10.1357 70.6422 10.1357 68.6436 12.1344L51.8072 28.9868L42.6295 19.8091C40.6309 17.8105 37.3851 17.8105 35.3865 19.8091L17.4788 37.7168C15.4801 39.7154 15.4801 42.9612 17.4788 44.9598C19.4774 46.9584 22.7232 46.9584 24.7218 44.9598L39.016 30.6816L48.1937 39.8593C50.1923 41.858 53.4381 41.858 55.4367 39.8593L75.9026 19.3934L75.8866 19.3774Z" fill="url(#paint0_linear_12_382)"/>
  <defs>
    <linearGradient id="paint0_linear_12_382" x1="41.5742" y1="0.414429" x2="41.5742" y2="72.0452" gradientUnits="userSpaceOnUse">
      <stop stop-color="#747474"/>
      <stop offset="0.880208" stop-color="#747474" stop-opacity="0"/>
    </linearGradient>
  </defs>
</svg>